# xmcd
#
# Track frame offsets:
#	150
#	22157
#	40532
#	59660
#	89523
#	104962
#	120859
#	140118
#	154251
#	180816
#	195474
#	211680
#	229171
#	251828
#
# Disc length: 3603 seconds
#
# Revision: 0
# Processed by: cddbd v1.5.2PL0 Copyright (c) Steve Scherf et al.
# Submitted via: audiograbber 1.83.01
#
DISCID=c30e110e
DTITLE=Григорий Лепс - Парус - Песни Владимира Высоцкого
DYEAR=2004
DGENRE=Chanson
TTITLE0=Песня о друге
TTITLE1=Расстрел горного эха
TTITLE2=Здесь лапы у елей дрожат на весу...
TTITLE3=Купола
TTITLE4=Дом хрустальный
TTITLE5=Корабли
TTITLE6=Спасите наши души
TTITLE7=Парус
TTITLE8=Моя цыганская
TTITLE9=Песня Вани у Марии
TTITLE10=Романс
TTITLE11=Прощание с горами
TTITLE12=Reprise...
TTITLE13=Клип
EXTD=
EXTT0=
EXTT1=
EXTT2=
EXTT3=
EXTT4=
EXTT5=
EXTT6=
EXTT7=
EXTT8=
EXTT9=
EXTT10=
EXTT11=
EXTT12=
EXTT13=
PLAYORDER=
